<!-- Generated by IcoMoon.io -->
<svg version="1.1" xmlns="http://www.w3.org/2000/svg" width="32" height="32" viewBox="0 0 32 32">
<title>Ad-pop-up</title>
<path d="M20.666 4.46c0.259 0 0.468-0.21 0.468-0.468s-0.21-0.468-0.468-0.468c-0.259 0-0.468 0.21-0.468 0.468s0.21 0.468 0.468 0.468z"></path>
<path d="M22.677 4.46c0.259 0 0.468-0.21 0.468-0.468s-0.21-0.468-0.468-0.468c-0.259 0-0.468 0.21-0.468 0.468s0.21 0.468 0.468 0.468z"></path>
<path d="M8.854 4.46h8.424c0.259 0 0.469-0.21 0.469-0.469s-0.21-0.469-0.469-0.469h-8.424c-0.259 0-0.469 0.21-0.469 0.469s0.21 0.469 0.469 0.469z"></path>
<path d="M30.755 25.673h-0.823v-3.071c0-0.259-0.21-0.469-0.469-0.469s-0.469 0.21-0.469 0.469v3.071c-2.009 0-24.749 0-25.989 0v-15.83c0-0.638 0.519-1.156 1.156-1.156h2.225v1.263h-1.22c-0.495 0-0.898 0.403-0.898 0.898v12.665c0 0.495 0.403 0.898 0.898 0.898h21.668c0.495 0 0.898-0.403 0.898-0.898v-12.665c0-0.495-0.403-0.898-0.898-0.898h-1.22v-1.263h2.225c0.637 0 1.156 0.519 1.156 1.156v10.567c0 0.259 0.21 0.469 0.469 0.469s0.469-0.21 0.469-0.469v-10.566c0-1.154-0.939-2.094-2.094-2.094h-2.225v-5.159c0-0.53-0.431-0.961-0.961-0.961h-17.305c-0.53 0-0.961 0.431-0.961 0.961v5.159h-2.225c-1.154 0-2.094 0.939-2.094 2.094v15.83h-0.823c-0.687-0-1.245 0.559-1.245 1.245 0 1.903 1.548 3.452 3.452 3.452h25.096c1.903 0 3.452-1.549 3.452-3.452 0-0.687-0.559-1.245-1.245-1.245zM5.206 10.887h1.18v12.586h-1.18v-12.586zM26.794 10.887v12.586h-1.18v-12.586h1.18zM7.348 2.567h17.305c0.013 0 0.024 0.011 0.024 0.024v2.825h-13.685c-0.259 0-0.469 0.21-0.469 0.469s0.21 0.469 0.469 0.469h13.685v17.12h-17.352v-17.12h1.476c0.259 0 0.469-0.21 0.469-0.469s-0.21-0.469-0.469-0.469h-1.476v-2.825c0-0.013 0.011-0.024 0.024-0.024zM11.481 26.611h9.037v0.471c0 0.26-0.211 0.471-0.471 0.471h-8.095c-0.26 0-0.471-0.211-0.471-0.471v-0.471zM28.548 29.433h-25.096c-1.386 0-2.514-1.128-2.514-2.514 0-0.17 0.138-0.308 0.308-0.308h9.298v0.471c0 0.777 0.632 1.409 1.409 1.409h8.095c0.777 0 1.409-0.632 1.409-1.409v-0.471h9.298c0.17 0 0.308 0.138 0.308 0.308 0 1.386-1.128 2.514-2.514 2.514z"></path>
<path d="M9.751 15.053l-0.34 0.088c-0.754 0.194-1.208 0.962-1.013 1.717l0.235 0.911c0.164 0.635 0.738 1.058 1.365 1.058 0.27 0 0.42-0.071 0.747-0.147 0.238 0.277 0.6 0.43 0.975 0.394l1.644 2.492c0.171 0.259 0.458 0.409 0.759 0.409 0.186 0 0.267-0.047 0.759-0.166 0.487-0.125 0.779-0.62 0.654-1.107l-0.627-2.433 0.669-0.172c1.782-0.459 3.659-0.020 5.050 1.175l0.006 0.023c0.090 0.351 0.312 0.645 0.624 0.829 0.212 0.125 0.447 0.189 0.687 0.189 0.113 0 0.228-0.014 0.34-0.043 0.351-0.090 0.645-0.312 0.829-0.624s0.236-0.677 0.145-1.027l-2.5-9.704c-0.090-0.351-0.312-0.645-0.624-0.829s-0.677-0.236-1.027-0.145c-0.351 0.090-0.645 0.312-0.829 0.624s-0.236 0.677-0.145 1.027l0.006 0.023c-0.641 1.718-2.071 3.009-3.853 3.468l-3.68 0.948c-0.487 0.125-0.819 0.549-0.853 1.024zM10.115 17.874c-0.252 0.065-0.51-0.087-0.575-0.339l-0.235-0.911c-0.065-0.253 0.087-0.51 0.339-0.575l0.281-0.073 0.47 1.825-0.281 0.073zM14.619 20.907l-0.485 0.125-1.446-2.192 1.311-0.338 0.62 2.405zM19.084 9.039c0.057-0.096 0.148-0.164 0.256-0.192 0.035-0.009 0.070-0.013 0.104-0.013 0.186 0 0.356 0.125 0.405 0.314l2.5 9.704c0.058 0.223-0.077 0.452-0.3 0.509s-0.452-0.077-0.509-0.3l-2.5-9.704c-0.028-0.108-0.012-0.221 0.045-0.317zM18.499 11.016l1.765 6.852c-2.527-1.473-4.934-0.665-4.99-0.662l-0.824-3.2c0.051-0.024 2.545-0.475 4.049-2.99zM10.838 14.937l2.705-0.697 0.824 3.2c-0.823 0.212-2.137 0.551-2.705 0.697-0.197 0.050-0.246-0.149-0.251-0.155l-0.72-2.796c-0.028-0.109 0.038-0.221 0.147-0.249z"></path>
</svg>
