<!-- Generated by IcoMoon.io -->
<svg version="1.1" xmlns="http://www.w3.org/2000/svg" width="32" height="32" viewBox="0 0 32 32">
<title>coding</title>
<path d="M29.75 3.5h-27.5c-0.464 0.001-0.909 0.185-1.237 0.513s-0.513 0.773-0.513 1.237v17.5c0 0.464 0.185 0.909 0.513 1.237s0.773 0.513 1.237 0.513h10.011l-0.6 1.5h-2.661c-0.133 0-0.26 0.053-0.354 0.146s-0.146 0.221-0.146 0.354v1h-3c-0.133 0-0.26 0.053-0.354 0.146s-0.146 0.221-0.146 0.354c0 0.133 0.053 0.26 0.146 0.354s0.221 0.146 0.354 0.146h21c0.133 0 0.26-0.053 0.354-0.146s0.146-0.221 0.146-0.354c0-0.133-0.053-0.26-0.146-0.354s-0.221-0.146-0.354-0.146h-3v-1c0-0.133-0.053-0.26-0.146-0.354s-0.221-0.146-0.354-0.146h-2.661l-0.6-1.5h10.011c0.464-0.001 0.909-0.185 1.237-0.513s0.513-0.773 0.513-1.237v-17.5c-0.001-0.464-0.185-0.909-0.513-1.237s-0.773-0.513-1.237-0.513zM22.5 27v0.5h-13v-0.5h13zM12.739 26l0.6-1.5h5.323l0.6 1.5h-6.523zM30.5 22.75c-0 0.199-0.079 0.39-0.22 0.53s-0.331 0.22-0.53 0.22h-27.5c-0.199-0-0.39-0.079-0.53-0.22s-0.22-0.331-0.22-0.53v-1.25h29v1.25zM30.5 20.5h-29v-15.25c0-0.199 0.079-0.389 0.22-0.53s0.331-0.22 0.53-0.22h27.5c0.199 0 0.39 0.079 0.53 0.22s0.22 0.331 0.22 0.53v15.25z"></path>
<path d="M13.726 16.418c0.055 0.036 0.116 0.061 0.181 0.073s0.131 0.012 0.195-0.002c0.064-0.013 0.125-0.039 0.18-0.076s0.101-0.084 0.137-0.139l3.938-6c0.073-0.111 0.099-0.246 0.072-0.376s-0.104-0.244-0.215-0.316c-0.111-0.073-0.246-0.098-0.376-0.072s-0.244 0.104-0.316 0.215l-3.938 6c-0.036 0.055-0.061 0.116-0.073 0.181s-0.012 0.131 0.002 0.195c0.013 0.064 0.039 0.125 0.076 0.18s0.084 0.101 0.139 0.137z"></path>
<path d="M19.18 16.384c0.102 0.085 0.233 0.126 0.365 0.114s0.254-0.076 0.339-0.178l2.5-3c0.075-0.090 0.116-0.203 0.116-0.32s-0.041-0.23-0.116-0.32l-2.5-3c-0.042-0.051-0.093-0.093-0.152-0.124s-0.122-0.050-0.188-0.056c-0.066-0.006-0.132 0.001-0.195 0.020s-0.121 0.051-0.172 0.093c-0.051 0.042-0.092 0.094-0.123 0.152s-0.049 0.122-0.055 0.188 0.001 0.132 0.021 0.195c0.020 0.063 0.052 0.121 0.094 0.171l2.233 2.68-2.233 2.68c-0.085 0.102-0.126 0.233-0.114 0.365s0.076 0.254 0.178 0.339z"></path>
<path d="M12.116 16.32c0.042 0.051 0.093 0.093 0.152 0.124s0.122 0.050 0.188 0.056c0.066 0.006 0.132-0.001 0.195-0.020s0.121-0.051 0.172-0.093c0.051-0.042 0.092-0.094 0.123-0.152s0.049-0.122 0.055-0.188-0.001-0.132-0.021-0.195c-0.020-0.063-0.052-0.121-0.094-0.172l-2.233-2.68 2.233-2.68c0.043-0.050 0.075-0.109 0.094-0.171s0.027-0.129 0.021-0.195-0.024-0.13-0.055-0.188c-0.031-0.058-0.072-0.11-0.123-0.152s-0.109-0.074-0.172-0.093c-0.063-0.020-0.129-0.026-0.195-0.020s-0.129 0.025-0.188 0.056-0.11 0.073-0.152 0.124l-2.5 3c-0.075 0.090-0.116 0.203-0.116 0.32s0.041 0.23 0.116 0.32l2.5 3z"></path>
</svg>
