<!-- Generated by IcoMoon.io -->
<svg version="1.1" xmlns="http://www.w3.org/2000/svg" width="32" height="32" viewBox="0 0 32 32">
<title>Contrast</title>
<path d="M16.533 28.8c-7.364 0-13.333-5.969-13.333-13.333s5.969-13.333 13.333-13.333c7.364 0 13.333 5.969 13.333 13.333s-5.969 13.333-13.333 13.333zM7.639 21.367c0.876 1.311 2.033 2.412 3.385 3.223s2.869 1.311 4.438 1.466c1.57 0.154 3.154-0.041 4.639-0.572s2.834-1.386 3.949-2.501c1.115-1.115 1.969-2.464 2.5-3.949s0.727-3.069 0.572-4.639c-0.155-1.57-0.655-3.085-1.466-4.438s-1.911-2.509-3.223-3.385c0.575 2.051 0.593 4.218 0.054 6.279s-1.619 3.94-3.125 5.446c-1.505 1.507-3.385 2.585-5.445 3.125s-4.227 0.522-6.278-0.053z"></path>
</svg>
