<!-- Generated by IcoMoon.io -->
<svg version="1.1" xmlns="http://www.w3.org/2000/svg" width="32" height="32" viewBox="0 0 32 32">
<title>cv</title>
<path d="M22.691 20.039l-6.246 5.962-6.246-5.962c-4.682 0.194-8.42 3.85-8.42 8.363v0.6c0 1.656 1.408 3 3.143 3h23.048c1.735 0 3.143-1.344 3.143-3v-0.6c0-4.513-3.739-8.169-8.42-8.363zM2.668 4.989l0.419 0.094v3.65c-0.458 0.262-0.786 0.719-0.786 1.269 0 0.525 0.301 0.963 0.727 1.231l-1.021 3.894c-0.111 0.431 0.138 0.875 0.498 0.875h2.737c0.36 0 0.609-0.444 0.498-0.875l-1.021-3.894c0.426-0.269 0.727-0.706 0.727-1.231 0-0.55-0.327-1.006-0.786-1.269v-3.287l4.321 0.994c-0.563 1.075-0.917 2.275-0.917 3.563 0 4.419 3.752 8 8.381 8s8.381-3.581 8.381-8c0-1.287-0.347-2.487-0.917-3.563l6.305-1.45c1.192-0.275 1.192-1.694 0-1.969l-12.467-2.875c-0.851-0.194-1.748-0.194-2.599 0l-12.48 2.869c-1.185 0.275-1.185 1.7 0 1.975z"></path>
</svg>
