<!-- Generated by IcoMoon.io -->
<svg version="1.1" xmlns="http://www.w3.org/2000/svg" width="32" height="32" viewBox="0 0 32 32">
<title>game-development</title>
<path d="M14 16.5h4v1h-4v-1z"></path>
<path d="M15.5 15h1v4h-1v-4z"></path>
<path d="M28.5 16.5h1v1h-1v-1z"></path>
<path d="M24.5 16.5h1v1h-1v-1z"></path>
<path d="M26.5 14.5h1v1h-1v-1z"></path>
<path d="M26.5 18.5h1v1h-1v-1z"></path>
<path d="M4.61 8.813l-2.25-2.813 2.25-2.813 0.781 0.625-1.75 2.188 1.75 2.188-0.781 0.625z"></path>
<path d="M12.39 8.813l-0.781-0.625 1.751-2.188-1.751-2.188 0.781-0.625 2.249 2.813-2.249 2.813z"></path>
<path d="M6.373 7.67l3.501-3.999 0.752 0.658-3.501 3.999-0.752-0.659z"></path>
<path d="M4 22h-2v-2h1v1h1v1z"></path>
<path d="M30.5 1h-29c-0.828 0-1.5 0.672-1.5 1.5v20c0 0.828 0.672 1.5 1.5 1.5h10.5v2.5c0 0.828-0.672 1.5-1.5 1.5h-2.5v3h16v-3h-2.5c-0.828 0-1.5-0.672-1.5-1.5v-2.5h10.5c0.828 0 1.5-0.672 1.5-1.5v-20c0-0.828-0.672-1.5-1.5-1.5zM23 29v1h-14v-1h14zM16 27.021c0.828 0 1.5-0.672 1.5-1.5v-1.521h1.5v2.5c0.002 0.543 0.182 1.070 0.513 1.5h-7.026c0.331-0.43 0.511-0.957 0.513-1.5v-2.5h1.5v1.521c0 0.828 0.672 1.5 1.5 1.5zM15.5 25.521v-1.521h1v1.521c0 0.276-0.224 0.5-0.5 0.5s-0.5-0.224-0.5-0.5zM31 22.5c0 0.276-0.224 0.5-0.5 0.5h-29c-0.276 0-0.5-0.224-0.5-0.5v-4.5h10.1c0.414 2.035 2.044 3.602 4.094 3.936s4.093-0.636 5.13-2.436h2.35c0.838 1.457 2.354 2.393 4.031 2.492s3.292-0.656 4.294-2.005v2.513zM27 21c-1.52 0.004-2.909-0.859-3.579-2.223l-0.138-0.277h-3.565l-0.138 0.277c-0.877 1.768-2.912 2.633-4.793 2.036s-3.046-2.477-2.743-4.427c0.303-1.95 1.983-3.388 3.957-3.386h11c2.209 0 4 1.791 4 4s-1.791 4-4 4zM31 14.013c-0.94-1.265-2.424-2.011-4-2.013h-11c-2.76 0.003-4.997 2.24-5 5h-10v-14.5c0-0.276 0.224-0.5 0.5-0.5h29c0.276 0 0.5 0.224 0.5 0.5v11.513z"></path>
<path d="M20.5 16.5h2v1h-2v-1z"></path>
<path d="M15 4h4v1h-4v-1z"></path>
<path d="M21 4h8v1h-8v-1z"></path>
<path d="M22 6h7v1h-7v-1z"></path>
<path d="M16 6h4v1h-4v-1z"></path>
<path d="M15 8h10v1h-10v-1z"></path>
<path d="M27 8h2v1h-2v-1z"></path>
<path d="M3 10h5v1h-5v-1z"></path>
<path d="M10 10h9.5v1h-9.5v-1z"></path>
<path d="M21 10h8v1h-8v-1z"></path>
<path d="M3 12h8v1h-8v-1z"></path>
<path d="M3 14h4v1h-4v-1z"></path>
<path d="M8 14h2v1h-2v-1z"></path>
</svg>
