<svg aria-hidden="true" style="position: absolute; width: 0; height: 0; overflow: hidden;" version="1.1" xmlns="http://www.w3.org/2000/svg" xmlns:xlink="http://www.w3.org/1999/xlink">
<defs>
<symbol id="icon-chart-bar" viewBox="0 0 32 32">
<path fill="#f86f03" style="fill: var(--color1, #f86f03)" d="M20.8 20h2.4c0.4 0 0.8-0.4 0.8-0.8v-8.4c0-0.4-0.4-0.8-0.8-0.8h-2.4c-0.4 0-0.8 0.4-0.8 0.8v8.4c0 0.4 0.4 0.8 0.8 0.8zM26.8 20h2.4c0.4 0 0.8-0.4 0.8-0.8v-14.4c0-0.4-0.4-0.8-0.8-0.8h-2.4c-0.4 0-0.8 0.4-0.8 0.8v14.4c0 0.4 0.4 0.8 0.8 0.8zM8.8 20h2.4c0.4 0 0.8-0.4 0.8-0.8v-4.4c0-0.4-0.4-0.8-0.8-0.8h-2.4c-0.4 0-0.8 0.4-0.8 0.8v4.4c0 0.4 0.4 0.8 0.8 0.8zM14.8 20h2.4c0.4 0 0.8-0.4 0.8-0.8v-12.4c0-0.4-0.4-0.8-0.8-0.8h-2.4c-0.4 0-0.8 0.4-0.8 0.8v12.4c0 0.4 0.4 0.8 0.8 0.8zM31 24h-27v-19c0-0.553-0.447-1-1-1h-2c-0.552 0-1 0.447-1 1v21c0 1.104 0.896 2 2 2h29c0.552 0 1-0.448 1-1v-2c0-0.552-0.448-1-1-1z"></path>
</symbol>
<symbol id="icon-email" viewBox="0 0 32 32">
<path fill="#fff" style="fill: var(--color2, #fff)" d="M31.394 11.925c0.244-0.194 0.606-0.012 0.606 0.294v12.781c0 1.656-1.344 3-3 3h-26c-1.656 0-3-1.344-3-3v-12.775c0-0.313 0.356-0.488 0.606-0.294 1.4 1.088 3.256 2.469 9.631 7.1 1.319 0.962 3.544 2.987 5.763 2.975 2.231 0.019 4.5-2.050 5.769-2.975 6.375-4.631 8.225-6.019 9.625-7.106zM16 20c1.45 0.025 3.538-1.825 4.588-2.588 8.294-6.019 8.925-6.544 10.837-8.044 0.363-0.281 0.575-0.719 0.575-1.181v-1.188c0-1.656-1.344-3-3-3h-26c-1.656 0-3 1.344-3 3v1.188c0 0.463 0.212 0.894 0.575 1.181 1.912 1.494 2.544 2.025 10.838 8.044 1.050 0.762 3.138 2.612 4.588 2.588z"></path>
</symbol>
<symbol id="icon-facebook" viewBox="0 0 32 32">
<path fill="#fff" style="fill: var(--color2, #fff)" d="M23.446 18l0.889-5.791h-5.557v-3.758c0-1.584 0.776-3.129 3.265-3.129h2.526v-4.931c0 0-2.292-0.391-4.484-0.391-4.576 0-7.567 2.774-7.567 7.795v4.414h-5.087v5.791h5.087v14h6.261v-14h4.668z"></path>
</symbol>
<symbol id="icon-github" viewBox="0 0 32 32">
<path fill="#fff" style="fill: var(--color2, #fff)" d="M10.369 24.337c0 0.125-0.144 0.225-0.325 0.225-0.206 0.019-0.35-0.081-0.35-0.225 0-0.125 0.144-0.225 0.325-0.225 0.188-0.019 0.35 0.081 0.35 0.225zM8.425 24.056c-0.044 0.125 0.081 0.269 0.269 0.306 0.162 0.063 0.35 0 0.387-0.125s-0.081-0.269-0.269-0.325c-0.162-0.044-0.344 0.019-0.387 0.144zM11.188 23.95c-0.181 0.044-0.306 0.162-0.287 0.306 0.019 0.125 0.181 0.206 0.369 0.163 0.181-0.044 0.306-0.163 0.287-0.288-0.019-0.119-0.188-0.2-0.369-0.181zM15.3 0c-8.669 0-15.3 6.581-15.3 15.25 0 6.931 4.362 12.862 10.594 14.95 0.8 0.144 1.081-0.35 1.081-0.756 0-0.388-0.019-2.525-0.019-3.838 0 0-4.375 0.938-5.294-1.862 0 0-0.713-1.819-1.737-2.288 0 0-1.431-0.981 0.1-0.962 0 0 1.556 0.125 2.412 1.612 1.369 2.413 3.662 1.719 4.556 1.306 0.144-1 0.55-1.694 1-2.106-3.494-0.387-7.019-0.894-7.019-6.906 0-1.719 0.475-2.581 1.475-3.681-0.162-0.406-0.694-2.081 0.162-4.244 1.306-0.406 4.313 1.687 4.313 1.687 1.25-0.35 2.594-0.531 3.925-0.531s2.675 0.181 3.925 0.531c0 0 3.006-2.1 4.313-1.688 0.856 2.169 0.325 3.837 0.163 4.244 1 1.106 1.612 1.969 1.612 3.681 0 6.031-3.681 6.513-7.175 6.906 0.575 0.494 1.063 1.431 1.063 2.9 0 2.106-0.019 4.713-0.019 5.225 0 0.406 0.288 0.9 1.081 0.756 6.25-2.075 10.487-8.006 10.487-14.938 0-8.669-7.031-15.25-15.7-15.25zM6.075 21.556c-0.081 0.063-0.063 0.206 0.044 0.325 0.1 0.1 0.244 0.144 0.325 0.063 0.081-0.063 0.063-0.206-0.044-0.325-0.1-0.1-0.244-0.144-0.325-0.063zM5.4 21.050c-0.044 0.081 0.019 0.181 0.144 0.244 0.1 0.062 0.225 0.044 0.269-0.044 0.044-0.081-0.019-0.181-0.144-0.244-0.125-0.038-0.225-0.019-0.269 0.044zM7.425 23.275c-0.1 0.081-0.063 0.269 0.081 0.387 0.144 0.144 0.325 0.163 0.406 0.063 0.081-0.081 0.044-0.269-0.081-0.387-0.138-0.144-0.325-0.163-0.406-0.063zM6.713 22.356c-0.1 0.063-0.1 0.225 0 0.369s0.269 0.206 0.35 0.144c0.1-0.081 0.1-0.244 0-0.387-0.088-0.144-0.25-0.206-0.35-0.125z"></path>
</symbol>
<symbol id="icon-share" viewBox="0 0 32 32">
<path fill="#fff" style="fill: var(--color2, #fff)" d="M27 20h-2c-0.265 0-0.52 0.105-0.707 0.293s-0.293 0.442-0.293 0.707v7h-20v-20h9c0.265 0 0.52-0.105 0.707-0.293s0.293-0.442 0.293-0.707v-2c0-0.265-0.105-0.52-0.293-0.707s-0.442-0.293-0.707-0.293h-10c-0.796 0-1.559 0.316-2.121 0.879s-0.879 1.326-0.879 2.121v22c0 0.796 0.316 1.559 0.879 2.121s1.326 0.879 2.121 0.879h22c0.796 0 1.559-0.316 2.121-0.879s0.879-1.326 0.879-2.121v-8c0-0.265-0.105-0.52-0.293-0.707s-0.442-0.293-0.707-0.293zM30.5 0h-8c-1.336 0-2.003 1.619-1.063 2.563l2.233 2.233-15.233 15.228c-0.14 0.139-0.251 0.305-0.326 0.487s-0.115 0.378-0.115 0.575c0 0.198 0.039 0.393 0.115 0.575s0.187 0.348 0.326 0.487l1.417 1.414c0.139 0.14 0.305 0.251 0.487 0.327s0.378 0.115 0.575 0.115 0.393-0.039 0.575-0.115c0.182-0.076 0.348-0.187 0.487-0.327l15.226-15.23 2.232 2.23c0.938 0.938 2.563 0.281 2.563-1.063v-8c0-0.398-0.158-0.779-0.439-1.061s-0.663-0.439-1.061-0.439z"></path>
</symbol>
<symbol id="icon-instagram" viewBox="0 0 32 32">
<path fill="#fff" style="fill: var(--color2, #fff)" d="M16.144 8.813c-3.975 0-7.181 3.206-7.181 7.181s3.206 7.181 7.181 7.181c3.975 0 7.181-3.206 7.181-7.181s-3.206-7.181-7.181-7.181zM16.144 20.663c-2.569 0-4.669-2.094-4.669-4.669s2.094-4.669 4.669-4.669c2.575 0 4.669 2.094 4.669 4.669s-2.1 4.669-4.669 4.669zM25.294 8.519c0 0.931-0.75 1.675-1.675 1.675-0.931 0-1.675-0.75-1.675-1.675s0.75-1.675 1.675-1.675c0.925 0 1.675 0.75 1.675 1.675zM30.051 10.219c-0.106-2.244-0.619-4.231-2.263-5.869-1.637-1.638-3.625-2.15-5.869-2.263-2.313-0.131-9.244-0.131-11.556 0-2.238 0.106-4.225 0.619-5.869 2.256s-2.15 3.625-2.263 5.869c-0.131 2.313-0.131 9.244 0 11.556 0.106 2.244 0.619 4.231 2.263 5.869s3.625 2.15 5.869 2.262c2.313 0.131 9.244 0.131 11.556 0 2.244-0.106 4.231-0.619 5.869-2.262 1.638-1.638 2.15-3.625 2.263-5.869 0.131-2.313 0.131-9.238 0-11.55zM27.063 24.25c-0.487 1.225-1.431 2.169-2.663 2.662-1.844 0.731-6.219 0.563-8.256 0.563s-6.419 0.163-8.256-0.563c-1.225-0.487-2.169-1.431-2.662-2.662-0.731-1.844-0.563-6.219-0.563-8.256s-0.162-6.419 0.563-8.256c0.487-1.225 1.431-2.169 2.662-2.662 1.844-0.731 6.219-0.563 8.256-0.563s6.419-0.162 8.256 0.563c1.225 0.487 2.169 1.431 2.663 2.662 0.731 1.844 0.563 6.219 0.563 8.256s0.169 6.419-0.563 8.256z"></path>
</symbol>
<symbol id="icon-laptop-code" viewBox="0 0 32 32">
<path fill="#f86f03" style="fill: var(--color1, #f86f03)" d="M12.752 16.282c0.312 0.313 0.819 0.313 1.131 0l0.566-0.565c0.312-0.313 0.312-0.819 0-1.131l-1.786-1.786 1.786-1.786c0.312-0.312 0.312-0.819 0-1.131l-0.566-0.566c-0.312-0.313-0.819-0.313-1.131 0l-2.917 2.917c-0.313 0.312-0.313 0.819 0 1.131l2.918 2.917zM17.552 15.718l0.566 0.565c0.312 0.313 0.819 0.313 1.131 0l2.917-2.917c0.313-0.312 0.313-0.819 0-1.131l-2.917-2.917c-0.312-0.312-0.819-0.312-1.131 0l-0.566 0.566c-0.312 0.313-0.312 0.819 0 1.131l1.786 1.786-1.786 1.786c-0.312 0.313-0.312 0.819 0 1.132zM31.2 24h-12.123c-0.037 0.99-0.735 1.6-1.637 1.6h-3.040c-0.935 0-1.651-0.874-1.638-1.6h-11.962c-0.44 0-0.8 0.36-0.8 0.8v0.8c0 1.76 1.44 3.2 3.2 3.2h25.6c1.76 0 3.2-1.44 3.2-3.2v-0.8c0-0.44-0.36-0.8-0.8-0.8zM28.8 5.6c0-1.32-1.080-2.4-2.4-2.4h-20.8c-1.32 0-2.4 1.080-2.4 2.4v16.8h25.6v-16.8zM25.6 19.2h-19.2v-12.8h19.2v12.8z"></path>
</symbol>
<symbol id="icon-linkedin" viewBox="0 0 32 32">
<path fill="#fff" style="fill: var(--color2, #fff)" d="M8.268 28h-5.805v-18.694h5.805v18.694zM5.362 6.756c-1.856 0-3.362-1.537-3.362-3.394 0-0.892 0.354-1.747 0.985-2.377s1.486-0.985 2.377-0.985c0.892 0 1.747 0.354 2.377 0.985s0.985 1.486 0.985 2.377c0 1.856-1.506 3.394-3.362 3.394zM29.994 28h-5.793v-9.1c0-2.169-0.044-4.95-3.018-4.95-3.018 0-3.481 2.356-3.481 4.794v9.256h-5.799v-18.694h5.568v2.55h0.081c0.775-1.469 2.668-3.019 5.492-3.019 5.875 0 6.955 3.869 6.955 8.894v10.269h-0.006z"></path>
</symbol>
<symbol id="icon-location-arrow" viewBox="0 0 32 32">
<path fill="#fff" style="fill: var(--color2, #fff)" d="M27.783 0.22l-25.986 11.994c-2.998 1.399-1.999 5.797 1.199 5.797h10.994v10.994c0 3.198 4.397 4.198 5.797 1.199l11.994-25.986c0.999-2.399-1.599-4.998-3.998-3.998z"></path>
</symbol>
<symbol id="icon-mobile" viewBox="0 0 32 32">
<path fill="#f86f03" style="fill: var(--color1, #f86f03)" d="M23 0h-14c-1.656 0-3 1.344-3 3v26c0 1.656 1.344 3 3 3h14c1.656 0 3-1.344 3-3v-26c0-1.656-1.344-3-3-3zM16 30c-1.106 0-2-0.894-2-2s0.894-2 2-2c1.106 0 2 0.894 2 2s-0.894 2-2 2zM23 23.25c0 0.412-0.338 0.75-0.75 0.75h-12.5c-0.412 0-0.75-0.338-0.75-0.75v-19.5c0-0.413 0.338-0.75 0.75-0.75h12.5c0.412 0 0.75 0.337 0.75 0.75v19.5z"></path>
</symbol>
<symbol id="icon-phone" viewBox="0 0 32 32">
<path fill="#fff" style="fill: var(--color2, #fff)" d="M31.087 22.613l-7-3c-0.299-0.128-0.631-0.154-0.947-0.077s-0.597 0.256-0.803 0.508l-3.1 3.788c-4.865-2.294-8.78-6.209-11.074-11.074l3.787-3.1c0.252-0.205 0.431-0.487 0.509-0.803s0.051-0.648-0.077-0.947l-3-7c-0.141-0.322-0.389-0.585-0.703-0.744s-0.673-0.203-1.016-0.125l-6.5 1.5c-0.331 0.076-0.625 0.262-0.837 0.528s-0.326 0.595-0.326 0.934c0 16.031 12.994 29 29 29 0.339 0 0.669-0.115 0.934-0.326s0.452-0.506 0.528-0.837l1.5-6.5c0.077-0.344 0.032-0.705-0.128-1.020s-0.424-0.564-0.748-0.705z"></path>
</symbol>
</defs>
</svg>
