<!-- Generated by IcoMoon.io -->
<svg version="1.1" xmlns="http://www.w3.org/2000/svg" width="32" height="32" viewBox="0 0 32 32">
<title>illustration</title>
<path d="M14.875 23.218c-0.259 0-0.469 0.21-0.469 0.469s0.21 0.469 0.469 0.469h2.25c0.259 0 0.469-0.21 0.469-0.469s-0.21-0.469-0.469-0.469h-2.25z"></path>
<path d="M5.625 15.94h3.098c0.189 0.493 0.666 0.844 1.224 0.844s1.035-0.351 1.224-0.844h0.619c0.259 0 0.469-0.21 0.469-0.469s-0.21-0.469-0.469-0.469h-0.619c-0.189-0.493-0.666-0.844-1.224-0.844s-1.035 0.351-1.224 0.844h-3.098c-0.259 0-0.469 0.21-0.469 0.469s0.21 0.469 0.469 0.469zM9.948 15.096c0.207 0 0.375 0.168 0.375 0.375s-0.168 0.375-0.375 0.375c-0.207 0-0.375-0.168-0.375-0.375s0.168-0.375 0.375-0.375z"></path>
<path d="M5.625 13.252h0.598c0.189 0.493 0.666 0.844 1.224 0.844s1.035-0.351 1.224-0.844h3.119c0.259 0 0.469-0.21 0.469-0.469s-0.21-0.469-0.469-0.469h-3.119c-0.189-0.493-0.666-0.844-1.224-0.844s-1.035 0.351-1.224 0.844h-0.598c-0.259 0-0.469 0.21-0.469 0.469s0.21 0.469 0.469 0.469zM7.448 12.408c0.207 0 0.375 0.168 0.375 0.375s-0.168 0.375-0.375 0.375c-0.207 0-0.375-0.168-0.375-0.375s0.168-0.375 0.375-0.375z"></path>
<path d="M11.885 8.94c0.259 0 0.469-0.21 0.469-0.469s-0.21-0.469-0.469-0.469-0.469 0.21-0.469 0.469c0 0.259 0.21 0.469 0.469 0.469z"></path>
<path d="M10.594 8.94c0.259 0 0.469-0.21 0.469-0.469s-0.21-0.469-0.469-0.469-0.469 0.21-0.469 0.469c0 0.259 0.21 0.469 0.469 0.469z"></path>
<path d="M9.302 8.94c0.259 0 0.469-0.21 0.469-0.469s-0.21-0.469-0.469-0.469c-0.259 0-0.469 0.21-0.469 0.469s0.21 0.469 0.469 0.469z"></path>
<path d="M30.594 3.155h-0.176l0.131-0.131c0.392-0.392 0.392-1.030 0-1.423l-1.026-1.026c-0.392-0.392-1.030-0.392-1.423 0l-2.579 2.58h-24.115c-0.775 0-1.406 0.631-1.406 1.406v19.467c0 0.948 0.771 1.719 1.719 1.719h11.103v3.316h-2.259c-0.603 0-1.094 0.491-1.094 1.094v0.468c0 0.603 0.491 1.094 1.094 1.094h10.875c0.603 0 1.094-0.491 1.094-1.094v-0.468c0-0.603-0.491-1.094-1.094-1.094h-2.259v-3.316h5.009c0.259 0 0.469-0.21 0.469-0.469s-0.21-0.469-0.469-0.469h-22.469c-0.431 0-0.781-0.35-0.781-0.781v-1.388h30.125v1.388c0 0.431-0.35 0.781-0.781 0.781h-3.906c-0.259 0-0.469 0.21-0.469 0.469s0.21 0.469 0.469 0.469h3.906c0.948 0 1.719-0.771 1.719-1.719v-19.466c0-0.775-0.631-1.406-1.406-1.406zM21.438 30c0.086 0 0.156 0.070 0.156 0.156v0.468c0 0.086-0.070 0.156-0.156 0.156h-10.875c-0.086 0-0.156-0.070-0.156-0.156v-0.468c0-0.086 0.070-0.156 0.156-0.156h10.875zM13.759 25.747h4.482v3.316h-4.482v-3.316zM28.763 1.239c0.027-0.027 0.070-0.027 0.097 0l1.026 1.026c0.027 0.027 0.027 0.070 0 0.097l-0.979 0.979-1.123-1.123 0.979-0.979zM27.121 2.881l1.123 1.123-0.327 0.327-1.123-1.123 0.327-0.327zM26.131 3.87l1.123 1.123-5.547 5.547-1.123-1.123 5.547-5.547zM25.438 8.156c0.638 0 1.156 0.519 1.156 1.156s-0.519 1.156-1.156 1.156-1.156-0.519-1.156-1.156c0-0.007 0.001-0.015 0.001-0.022l1.133-1.133c0.007-0 0.015-0.001 0.022-0.001zM20.893 11.052l-1.387 0.567 0.567-1.387 0.821 0.821zM31.063 21.703h-30.125v-17.142c0-0.258 0.21-0.469 0.469-0.469h23.177l-0.715 0.715h-15.931c-0.259 0-0.469 0.21-0.469 0.469s0.21 0.469 0.469 0.469h14.994l-3.306 3.306c-0.093 0.094-0.167 0.204-0.217 0.327l-1.047 2.563c-0.096 0.235-0.042 0.504 0.138 0.684 0.121 0.121 0.281 0.185 0.445 0.185 0.080 0 0.161-0.015 0.239-0.047l2.563-1.047c0.12-0.049 0.227-0.12 0.319-0.209l1.426-1.426c0.307 0.775 1.063 1.325 1.946 1.325 1.154 0 2.094-0.939 2.094-2.094 0-0.883-0.55-1.639-1.324-1.946l1.621-1.621h1.582v14.306h-0.248l-1.699-2.942c-0.129-0.224-0.416-0.301-0.64-0.172s-0.301 0.416-0.172 0.64l1.428 2.474h-6.548l-0.702-1.216 3.274-5.671 1.454 2.519c0.13 0.224 0.416 0.301 0.64 0.172s0.301-0.416 0.172-0.64l-1.552-2.688c-0.149-0.258-0.416-0.413-0.715-0.413s-0.566 0.154-0.715 0.413l-3.101 5.37-3.978-6.891c-0.149-0.258-0.416-0.413-0.715-0.413s-0.565 0.154-0.715 0.413l-1.057 1.831v-5.025c0-0.603-0.491-1.094-1.094-1.094h-8.041c-0.603 0-1.094 0.491-1.094 1.094v10.25c0 0.431 0.35 0.781 0.781 0.781h5.98l-0.697 1.207h-7.068v-14.306h3.16c0.259 0 0.469-0.21 0.469-0.469s-0.21-0.469-0.469-0.469h-3.316c-0.431 0-0.781 0.35-0.781 0.781v14.618c0 0.431 0.35 0.781 0.781 0.781h27.133c0.431 0 0.781-0.35 0.781-0.781v-14.618c0-0.431-0.35-0.781-0.781-0.781h-0.801l0.715-0.715h1.113c0.259 0 0.469 0.21 0.469 0.469v17.142zM12.885 10.408v7.498h-8.354v-7.498h8.354zM4.531 9.471v-1.659c0-0.086 0.070-0.156 0.156-0.156h8.042c0.086 0 0.156 0.070 0.156 0.156v1.659h-8.354zM11.438 18.844h1.604c0.431 0 0.781-0.35 0.781-0.781v-0.993c0.117 0.056 0.248 0.087 0.385 0.087 0.32 0 0.607-0.166 0.766-0.443l0.798-1.382c0.024-0.042 0.061-0.051 0.088-0.051s0.064 0.009 0.088 0.051l0.492 0.852c0.16 0.277 0.447 0.443 0.767 0.443s0.607-0.165 0.767-0.443l0.122-0.211 2.355 4.079h-9.708l0.697-1.207zM13.823 15.5v-0.788l1.772-3.069 1.958 3.391-0.347 0.602-0.447-0.773c-0.188-0.325-0.524-0.519-0.9-0.519s-0.712 0.194-0.9 0.519l-0.752 1.303-0.384-0.666z"></path>
</svg>
