<!-- Generated by IcoMoon.io -->
<svg version="1.1" xmlns="http://www.w3.org/2000/svg" width="32" height="32" viewBox="0 0 32 32">
<title>location</title>
<path d="M2.667 6.667l9.333-4 8 4 8.404-3.601c0.102-0.043 0.212-0.061 0.322-0.051s0.216 0.047 0.308 0.108c0.092 0.061 0.168 0.144 0.22 0.241s0.080 0.206 0.079 0.316v21.655l-9.333 4-8-4-8.404 3.601c-0.101 0.043-0.212 0.061-0.322 0.051s-0.216-0.047-0.308-0.108c-0.092-0.061-0.168-0.144-0.22-0.241s-0.080-0.206-0.079-0.316v-21.655zM20 26.352v-16.784l-0.087 0.037-7.913-3.957v16.784l0.087-0.037 7.913 3.957z"></path>
</svg>
