<!-- Generated by IcoMoon.io -->
<svg version="1.1" xmlns="http://www.w3.org/2000/svg" width="32" height="32" viewBox="0 0 32 32">
<title>Microphone</title>
<path d="M16 0c-3.452 0-6.261 2.92-6.261 6.509v9.491c0 3.59 2.809 6.509 6.261 6.509s6.261-2.92 6.261-6.509v-9.491c0-3.589-2.809-6.509-6.261-6.509zM16 21.118c-2.46 0-4.495-1.929-4.819-4.422h9.638c-0.324 2.494-2.359 4.422-4.819 4.422zM20.87 15.304h-9.739v-8.795c0-2.822 2.184-5.118 4.87-5.118s4.87 2.296 4.87 5.118v8.795z"></path>
<path d="M25.739 12.522c-0.384 0-0.696 0.312-0.696 0.696v2.783c0 4.986-4.057 9.044-9.043 9.044s-9.043-4.057-9.043-9.044v-2.783c0-0.384-0.312-0.696-0.696-0.696s-0.696 0.312-0.696 0.696v2.783c0 5.519 4.31 10.039 9.739 10.399v4.209h-3.478c-0.384 0-0.696 0.312-0.696 0.696s0.312 0.696 0.696 0.696h8.348c0.384 0 0.696-0.312 0.696-0.696s-0.312-0.696-0.696-0.696h-3.478v-4.209c5.43-0.36 9.739-4.881 9.739-10.399v-2.783c0-0.384-0.312-0.696-0.696-0.696z"></path>
</svg>
