<!-- Generated by IcoMoon.io -->
<svg version="1.1" xmlns="http://www.w3.org/2000/svg" width="32" height="32" viewBox="0 0 32 32">
<title>Mobile</title>
<path d="M8 2.667h16c0.354 0 0.693 0.14 0.943 0.391s0.391 0.589 0.391 0.943v24c0 0.354-0.14 0.693-0.391 0.943s-0.589 0.391-0.943 0.391h-16c-0.354 0-0.693-0.14-0.943-0.391s-0.391-0.589-0.391-0.943v-24c0-0.354 0.14-0.693 0.391-0.943s0.589-0.391 0.943-0.391zM16 22.667c-0.354 0-0.693 0.14-0.943 0.391s-0.391 0.589-0.391 0.943 0.14 0.693 0.391 0.943c0.25 0.25 0.589 0.391 0.943 0.391s0.693-0.14 0.943-0.391c0.25-0.25 0.391-0.589 0.391-0.943s-0.14-0.693-0.391-0.943c-0.25-0.25-0.589-0.391-0.943-0.391z"></path>
</svg>
