<!-- Generated by IcoMoon.io -->
<svg version="1.1" xmlns="http://www.w3.org/2000/svg" width="32" height="32" viewBox="0 0 32 32">
<title>Photographer</title>
<path d="M22.71 29.935h7.942l-2.039-6.117c-0.533-1.599-1.894-2.786-3.551-3.096l-5.449-1.022v-1.261c1.305-0.942 2.227-2.377 2.494-4.032 1.218-0.206 2.151-1.261 2.151-2.537v-3.613c0-4.553-3.705-8.258-8.258-8.258s-8.258 3.705-8.258 8.258v3.613c0 1.274 0.929 2.336 2.145 2.544 0.268 1.655 1.195 3.091 2.501 4.032v1.254l-5.449 1.022c-1.657 0.311-3.018 1.497-3.551 3.096l-2.038 6.116h7.942v-1.032h-1.403l0.872-3.488-1.001-0.25-0.935 3.738h-4.042l1.586-4.758c0.414-1.244 1.473-2.167 2.762-2.409l3.288-0.616 0.841 3.782c-0.549 0.238-0.934 0.785-0.934 1.42v4.129c0 0.854 0.695 1.548 1.548 1.548h8.258c0.854 0 1.548-0.695 1.548-1.548v-4.129c0-0.635-0.385-1.181-0.934-1.42l0.841-3.782 3.288 0.616c1.289 0.242 2.347 1.165 2.762 2.409l1.586 4.758h-4.042l-0.935-3.738-1.001 0.25 0.872 3.488h-1.403v1.032zM20.569 20.93l-0.713 3.207-0.357-1.428h-2.254l2.023-2.023 1.3 0.244zM18.952 24.774h-5.903l0.258-1.032h5.387l0.258 1.032zM16 22.496l-2.581-2.581v-0.87c0.787 0.362 1.659 0.568 2.581 0.568s1.794-0.208 2.581-0.57v0.873l-2.581 2.581zM22.194 13.324v-2.906c0.599 0.214 1.032 0.781 1.032 1.453s-0.433 1.239-1.032 1.453zM9.806 13.331c-0.601-0.213-1.032-0.787-1.032-1.46s0.431-1.247 1.032-1.46v2.92zM8.774 9.82v-1.562c0-3.985 3.241-7.226 7.226-7.226s7.226 3.241 7.226 7.226v1.562c-0.306-0.231-0.659-0.402-1.049-0.479-0.081-0.61-0.598-1.083-1.229-1.083-0.328 0-0.649 0.133-0.907 0.391-0.872 0.872-1.976 1.428-3.173 1.608l0.033-0.066c0.086-0.172 0.131-0.365 0.131-0.557v-0.13c0-0.687-0.559-1.246-1.246-1.246-0.328 0-0.649 0.133-0.881 0.365-1.088 1.087-2.53 1.69-4.067 1.7v-1.032h-0.516c-0.583 0-1.116 0.202-1.548 0.53zM10.839 13.419v-2.065c1.812-0.010 3.514-0.72 4.796-2.002 0.124-0.125 0.365-0.023 0.365 0.151v0.13c0 0.033-0.008 0.066-0.023 0.096l-0.812 1.625h0.835c1.802 0 3.496-0.701 4.796-2.002 0.125-0.125 0.365-0.023 0.365 0.151v3.915c0 2.846-2.315 5.161-5.161 5.161s-5.161-2.315-5.161-5.161zM12.731 20.686l2.023 2.023h-2.254l-0.357 1.428-0.713-3.207 1.3-0.244zM11.871 30.968c-0.284 0-0.516-0.231-0.516-0.516v-4.129c0-0.285 0.232-0.516 0.516-0.516h1.606c-0.671 0.657-1.090 1.57-1.090 2.581s0.418 1.924 1.090 2.581h-1.606zM16 30.968c-1.423 0-2.581-1.158-2.581-2.581s1.158-2.581 2.581-2.581c1.423 0 2.581 1.158 2.581 2.581s-1.158 2.581-2.581 2.581zM20.645 30.452c0 0.285-0.232 0.516-0.516 0.516h-1.606c0.672-0.657 1.090-1.57 1.090-2.581s-0.418-1.924-1.090-2.581h1.606c0.284 0 0.516 0.231 0.516 0.516v4.129z"></path>
<path d="M16 26.839c-0.854 0-1.548 0.695-1.548 1.548s0.695 1.548 1.548 1.548c0.854 0 1.548-0.695 1.548-1.548s-0.695-1.548-1.548-1.548zM16 28.903c-0.284 0-0.516-0.231-0.516-0.516s0.232-0.516 0.516-0.516 0.516 0.231 0.516 0.516c0 0.285-0.232 0.516-0.516 0.516z"></path>
</svg>
