<!-- Generated by IcoMoon.io -->
<svg version="1.1" xmlns="http://www.w3.org/2000/svg" width="32" height="32" viewBox="0 0 32 32">
<title>Portfolio</title>
<path d="M12 17.333v4h8v-4h9.333v9.333c0 0.354-0.14 0.693-0.391 0.943s-0.589 0.391-0.943 0.391h-24c-0.354 0-0.693-0.14-0.943-0.391s-0.391-0.589-0.391-0.943v-9.333h9.333zM14.667 14.667h2.667v4h-2.667v-4zM9.333 6.667v-4c0-0.354 0.14-0.693 0.391-0.943s0.589-0.391 0.943-0.391h10.667c0.354 0 0.693 0.14 0.943 0.391s0.391 0.589 0.391 0.943v4h5.333c0.354 0 0.693 0.14 0.943 0.391s0.391 0.589 0.391 0.943v6.667h-9.333v-2.667h-8v2.667h-9.333v-6.667c0-0.354 0.14-0.693 0.391-0.943s0.589-0.391 0.943-0.391h5.333zM12 4v2.667h8v-2.667h-8z"></path>
</svg>
