<!-- Generated by IcoMoon.io -->
<svg version="1.1" xmlns="http://www.w3.org/2000/svg" width="32" height="32" viewBox="0 0 32 32">
<title>Services</title>
<path d="M31.111 7.621v0.379h-9.778v-8h0.463c0.486 0 0.953 0.158 1.297 0.439l7.482 6.121c0.344 0.281 0.537 0.663 0.537 1.061zM20.722 10c-1.008 0-1.833-0.675-1.833-1.5v-8.5h-15.278c-1.013 0-1.833 0.672-1.833 1.5v29c0 0.828 0.821 1.5 1.833 1.5h25.667c1.012 0 1.833-0.672 1.833-1.5v-20.5h-10.389zM11.189 25.032c-0.037 0.032-0.082 0.058-0.131 0.077s-0.103 0.028-0.157 0.030c-0.054 0.001-0.108-0.006-0.159-0.021s-0.097-0.039-0.137-0.070l-4.955-3.801c-0.041-0.032-0.074-0.070-0.096-0.112s-0.034-0.088-0.034-0.134c0-0.046 0.012-0.092 0.034-0.134s0.055-0.081 0.096-0.112l4.955-3.801c0.040-0.030 0.086-0.054 0.137-0.070s0.105-0.023 0.159-0.021c0.054 0.001 0.107 0.012 0.157 0.030s0.094 0.044 0.131 0.077l1.496 1.305c0.038 0.033 0.067 0.072 0.086 0.114s0.028 0.088 0.025 0.133-0.016 0.089-0.040 0.13c-0.024 0.041-0.058 0.077-0.099 0.107l-3.114 2.242 3.114 2.242c0.041 0.030 0.075 0.066 0.099 0.107s0.038 0.085 0.040 0.13c0.003 0.045-0.006 0.090-0.025 0.133s-0.048 0.081-0.086 0.114l-1.496 1.305zM15.108 28.186l-2.097-0.498c-0.105-0.025-0.194-0.083-0.246-0.161s-0.065-0.171-0.035-0.257l4.693-13.227c0.031-0.086 0.102-0.159 0.197-0.202s0.209-0.053 0.314-0.028l2.097 0.498c0.052 0.012 0.101 0.033 0.143 0.061s0.078 0.062 0.103 0.101c0.026 0.039 0.043 0.082 0.049 0.126s0.001 0.089-0.014 0.131l-4.693 13.227c-0.015 0.043-0.040 0.082-0.074 0.117s-0.076 0.063-0.123 0.085c-0.047 0.021-0.1 0.035-0.153 0.040s-0.108 0.001-0.16-0.011zM27.39 21.246l-4.955 3.801c-0.039 0.030-0.086 0.054-0.137 0.070s-0.105 0.023-0.159 0.021c-0.054-0.001-0.107-0.012-0.157-0.030s-0.094-0.044-0.131-0.077l-1.496-1.305c-0.038-0.033-0.067-0.072-0.086-0.114s-0.028-0.087-0.025-0.133 0.016-0.089 0.040-0.13c0.024-0.041 0.058-0.077 0.099-0.107l3.114-2.242-3.114-2.242c-0.041-0.030-0.075-0.066-0.099-0.107s-0.038-0.085-0.040-0.13c-0.003-0.045 0.006-0.090 0.025-0.133s0.048-0.081 0.086-0.114l1.496-1.305c0.037-0.032 0.081-0.058 0.131-0.077s0.103-0.028 0.157-0.030c0.054-0.001 0.108 0.006 0.159 0.021s0.097 0.039 0.137 0.070l4.955 3.801c0.041 0.031 0.074 0.070 0.096 0.112s0.034 0.088 0.034 0.134c0 0.046-0.012 0.092-0.034 0.134s-0.055 0.080-0.096 0.112z"></path>
</svg>
